%
M48
M72
T01C0.02800
T02C0.03200
T03C0.03937
T04C0.04000
T05C0.04331
%
T01
X153260Y15469
X146260Y15469
X74481Y17634
X67481Y17634
T02
X172241Y46571
X159367Y71020
X132241Y46571
X119367Y71020
T03
X177162Y86020
X177162Y96020
X177162Y106020
X177162Y116020
X177162Y126020
X177162Y136020
X177162Y146020
X177162Y156020
X177162Y166020
X177162Y176020
X177162Y186020
X177162Y196020
X132162Y161020
X132162Y151020
X117162Y156020
X117162Y166020
X117162Y176020
X117162Y186020
X117162Y196020
X117162Y136020
X117162Y126020
X117162Y116020
X117162Y106020
X117162Y96020
X117162Y86020
X132162Y86020
X142162Y86020
X152162Y86020
T04
X185666Y9445
X185666Y19445
X185666Y29445
X185666Y39445
X185666Y49445
X97792Y60508
X97792Y70508
X87792Y70508
X87792Y60508
X77792Y60508
X77792Y70508
X67792Y70508
X67792Y60508
T05
X117162Y146020
M30
